<?xml version="1.0" encoding="UTF-8" standalone="no"?>
<!-- Created with Inkscape (http://www.inkscape.org/) -->

<svg
   width="297mm"
   height="210mm"
   viewBox="0 0 297 210"
   version="1.1"
   id="svg375"
   xmlns="http://www.w3.org/2000/svg"
   xmlns:svg="http://www.w3.org/2000/svg">
  <defs
     id="defs372" />
  <g
     id="layer4"
     style="display:inline">
    <path
       id="text476"
       style="font-style:normal;font-variant:normal;font-weight:normal;font-stretch:normal;font-size:226.357px;font-family:Bahnschrift;-inkscape-font-specification:'Bahnschrift, Normal';font-variant-ligatures:normal;font-variant-caps:normal;font-variant-numeric:normal;font-variant-east-asian:normal;writing-mode:lr-tb;fill:#0023ff;fill-opacity:1;stroke-width:0.227652"
       d="M 14.612872,22.732652 V 63.467633 H 38.834175 V 42.922117 h 45.236377 c 4.670063,0 8.746284,0.970887 12.229043,2.913518 3.561913,1.942629 6.293085,4.717847 8.192765,8.325589 1.54478,2.762212 2.47745,5.867706 2.8163,9.306409 h 25.8286 c -0.43011,-7.453235 -2.49635,-14.094622 -6.20495,-19.921265 -4.11599,-6.660446 -9.97332,-11.794418 -17.57205,-15.40216 -7.5196,-3.607742 -16.266094,-5.411556 -26.23945,-5.411556 H 38.834175 Z m 151.381718,0.10387 v 40.631111 h 24.22077 V 22.836522 Z m 97.12147,0 v 40.631111 h 24.2213 V 22.836522 Z M 14.612872,132.09497 v 42.05893 h 24.221303 v -42.05893 z m 72.912191,0 24.209807,42.05893 h 28.7327 l -25.28342,-42.05893 z m 79.480947,0 c 1.11504,6.59709 3.15204,12.53412 6.11243,17.81029 4.74921,8.39493 11.63559,14.81279 20.65911,19.25308 9.10267,4.37091 20.02577,6.55619 32.76951,6.55619 12.82289,0 23.78602,-2.18528 32.88868,-6.55619 9.10266,-4.44029 16.02856,-10.85815 20.77777,-19.25308 2.96038,-5.27617 4.99738,-11.2132 6.11243,-17.81029 h -24.73512 c -1.53499,5.45482 -4.22645,10.00865 -8.09188,13.64774 -6.33229,6.03604 -15.3163,9.05424 -26.95188,9.05424 -11.55644,0 -20.50094,-3.0182 -26.83323,-9.05424 -3.81773,-3.63911 -6.47603,-8.19288 -7.99206,-13.64774 z" />
  </g>
  <g
     id="layer5"
     style="display:inline"
     transform="translate(5.1599684,-4.6439716)">
    <text
       xml:space="preserve"
       style="font-style:normal;font-variant:normal;font-weight:normal;font-stretch:normal;font-size:52.9167px;font-family:Bahnschrift;-inkscape-font-specification:'Bahnschrift, Normal';font-variant-ligatures:normal;font-variant-caps:normal;font-variant-numeric:normal;font-variant-east-asian:normal;writing-mode:lr-tb;white-space:pre;inline-size:242.312;fill:#0023ff;fill-opacity:1;stroke-width:0.264583"
       x="13.415917"
       y="114.0353"
       id="text2159"
       transform="matrix(1.4220789,0,0,1.3396307,-16.397602,-24.413608)"><tspan
         x="13.415917"
         y="114.0353"
         id="tspan4934">Rate Uni</tspan></text>
  </g>
</svg>
