<?xml version="1.0" encoding="UTF-8" standalone="no"?>
<!-- Created with Inkscape (http://www.inkscape.org/) -->

<svg
   width="297mm"
   height="210mm"
   viewBox="0 0 297 210"
   version="1.1"
   id="svg375"
   inkscape:version="1.2.2 (732a01da63, 2022-12-09)"
   sodipodi:docname="rate_uni_logo_2.svg"
   xmlns:inkscape="http://www.inkscape.org/namespaces/inkscape"
   xmlns:sodipodi="http://sodipodi.sourceforge.net/DTD/sodipodi-0.dtd"
   xmlns="http://www.w3.org/2000/svg"
   xmlns:svg="http://www.w3.org/2000/svg">
  <sodipodi:namedview
     id="namedview377"
     pagecolor="#ffffff"
     bordercolor="#000000"
     borderopacity="0.25"
     inkscape:showpageshadow="2"
     inkscape:pageopacity="0.0"
     inkscape:pagecheckerboard="0"
     inkscape:deskcolor="#d1d1d1"
     inkscape:document-units="mm"
     showgrid="false"
     inkscape:zoom="0.72515432"
     inkscape:cx="630.90019"
     inkscape:cy="337.85912"
     inkscape:window-width="1920"
     inkscape:window-height="1001"
     inkscape:window-x="-9"
     inkscape:window-y="-9"
     inkscape:window-maximized="1"
     inkscape:current-layer="layer4" />
  <defs
     id="defs372" />
  <g
     inkscape:groupmode="layer"
     id="layer4"
     inkscape:label="Слой 2"
     style="display:inline">
    <path
       id="text476"
       style="font-style:normal;font-variant:normal;font-weight:normal;font-stretch:normal;font-size:226.357px;font-family:Bahnschrift;-inkscape-font-specification:'Bahnschrift, Normal';font-variant-ligatures:normal;font-variant-caps:normal;font-variant-numeric:normal;font-variant-east-asian:normal;writing-mode:lr-tb;fill:#0023ff;fill-opacity:1;stroke-width:0.227652"
       inkscape:label="text476"
       inkscape:transform-center-x="4.7996782"
       inkscape:transform-center-y="-1.0321539"
       d="M -10.216431,-3.6488729 V 222.93265 H 317.4323 V -3.6488729 Z M 14.613062,22.732463 h 24.22126 44.286703 c 9.973346,0 18.719635,1.803817 26.239225,5.411556 7.59872,3.607738 13.45607,8.741721 17.57205,15.40216 3.7086,5.826637 5.77468,12.468037 6.20479,19.921265 H 107.3087 c -0.33885,-3.4387 -1.27159,-6.5442 -2.81637,-9.306409 -1.89968,-3.607738 -4.630872,-6.382963 -8.192782,-8.32559 -3.482755,-1.942629 -7.559169,-2.913517 -12.229227,-2.913517 H 38.834322 v 20.545516 h -24.22126 z m 151.381458,0.103869 h 24.22074 v 40.631112 h -24.22074 z m 97.12172,0 H 287.3375 V 63.467444 H 263.11624 Z M 14.454932,73.344877 h 7.495666 13.705624 c 3.086493,0 5.793316,0.59995 8.120434,1.79989 2.351614,1.19994 4.16412,2.907411 5.437911,5.122685 1.298287,2.192198 1.947685,4.730568 1.947685,7.615039 0,2.884471 -0.649398,5.434388 -1.947685,7.649662 -1.298287,2.192198 -3.122987,3.888122 -5.474601,5.088057 -0.837554,0.43188 -1.723422,0.785 -2.656169,1.06144 l 12.319662,22.02604 H 44.511495 L 33.109607,102.4201 H 21.950598 v 21.28759 H 14.454932 Z M 186.82115,73.3795 h 7.49567 v 32.3634 c 0,3.66905 0.97968,6.50765 2.93936,8.51524 1.95968,2.00759 4.72799,3.01119 8.3044,3.01119 3.60091,0 6.3809,-1.0036 8.34058,-3.01119 1.98417,-2.00759 2.97656,-4.84619 2.97656,-8.51524 V 73.3795 h 7.49566 v 32.12155 c 0,3.94596 -0.73475,7.32626 -2.20451,10.1415 -1.46976,2.79217 -3.61306,4.9269 -6.4301,6.40375 -2.81704,1.45377 -6.20984,2.18074 -10.17819,2.18074 -3.94385,0 -7.32446,-0.72697 -10.1415,-2.18074 -2.79254,-1.47685 -4.92365,-3.61158 -6.39341,-6.40375 -1.46976,-2.81524 -2.20452,-6.19554 -2.20452,-10.1415 z m 91.34533,0 h 7.49567 v 7.061068 h -7.49567 z m -175.45234,3.946013 h 7.49567 v 10.453108 h 5.76864 v 6.369121 h -5.76864 v 20.283518 c 0,0.87688 0.18395,1.55766 0.55139,2.04225 0.36744,0.46152 0.90605,0.69195 1.61644,0.69195 h 3.60081 v 6.71535 h -4.33565 c -3.0865,0 -5.35226,-0.79626 -6.79752,-2.38848 -1.42077,-1.61531 -2.13114,-3.99201 -2.13114,-7.13032 V 94.147742 h -3.931539 v -6.369121 h 3.931539 z m -80.763542,2.7342 V 95.705269 H 35.95026 c 1.420767,0 2.682463,-0.323328 3.784782,-0.96945 1.102319,-0.646121 1.947343,-1.557335 2.535246,-2.7342 0.6124,-1.19994 0.91829,-2.573051 0.91829,-4.119128 0,-1.546076 -0.30589,-2.907641 -0.91829,-4.084505 -0.587903,-1.19994 -1.432927,-2.122702 -2.535246,-2.768823 -1.077823,-0.646122 -2.339519,-0.96945 -3.784782,-0.96945 z m 53.352299,7.19956 c 3.159981,0 5.866805,0.530666 8.120435,1.592151 2.25363,1.03841 3.968582,2.561638 5.144389,4.56923 1.175806,1.984516 1.763716,4.384317 1.763716,7.199556 v 23.08748 H 83.20319 v -2.76623 c -0.49805,0.54312 -1.060856,1.01618 -1.690336,1.41645 -0.955343,0.62304 -2.070191,1.08442 -3.343982,1.38441 -1.273791,0.32306 -2.706724,0.48472 -4.298962,0.48472 -4.703228,0 -8.218492,-0.91173 -10.54561,-2.73471 -2.327118,-1.84607 -3.490743,-4.63848 -3.490743,-8.37675 0,-3.55367 1.065554,-6.21855 3.196704,-7.99538 2.13115,-1.77684 5.352718,-2.66547 9.66401,-2.66547 H 83.20319 v -1.52291 c 0,-2.353725 -0.673786,-4.17667 -2.021065,-5.468913 -1.322783,-1.315319 -3.208972,-1.973006 -5.658569,-1.973006 -1.518751,0 -3.013172,0.219401 -4.482931,0.657841 -1.445263,0.438439 -2.731347,1.049937 -3.858162,1.834513 l -5.474602,-3.531051 c 1.445263,-1.638379 3.343646,-2.907047 5.69526,-3.807002 2.37611,-0.923031 5.009251,-1.384929 7.899776,-1.384929 z m 65.918973,0 c 3.18448,0 5.9035,0.750067 8.15713,2.249992 2.25363,1.499925 3.96806,3.669294 5.14387,6.507613 1.2003,2.83832 1.8004,6.241712 1.8004,10.210742 v 2.35387 h -24.02489 c 0.0569,2.82403 0.88667,5.00589 2.49339,6.54172 1.66573,1.59222 4.02956,2.38848 7.09156,2.38848 1.51875,0 3.02485,-0.28817 4.5191,-0.86506 1.49426,-0.5769 2.82964,-1.3847 4.00544,-2.42311 l 4.92373,4.63796 c -1.88619,1.70761 -4.0051,3.03453 -6.35671,3.98063 -2.35162,0.92304 -4.71545,1.38493 -7.09156,1.38493 -3.52742,0 -6.54065,-0.62304 -9.03924,-1.86913 -2.49859,-1.2461 -4.40917,-3.06956 -5.73195,-5.46944 -1.29829,-2.42295 -1.94769,-5.34187 -1.94769,-8.75709 v -4.04988 c 0,-3.55367 0.62501,-6.588059 1.87431,-9.103318 1.27379,-2.515259 3.11068,-4.430584 5.51129,-5.745903 2.4006,-1.315318 5.29138,-1.973006 8.67182,-1.973006 z m 112.54662,0 c 4.13982,0 7.33648,1.280733 9.59011,3.842143 2.27813,2.538335 3.41736,6.138035 3.41736,10.799344 v 21.80693 h -7.49566 v -21.77231 c 0,-2.538335 -0.69818,-4.499332 -2.09445,-5.883879 -1.39627,-1.384546 -3.35614,-2.076875 -5.87923,-2.076875 -2.44959,0 -4.34798,0.611497 -5.69526,1.834513 -1.32278,1.223016 -1.98385,2.942034 -1.98385,5.157311 v 22.74124 h -7.49619 V 87.778621 h 7.49619 v 4.990393 c 1.04996,-1.560633 2.32287,-2.809766 3.82095,-3.744474 1.91069,-1.176864 4.01741,-1.765267 6.32003,-1.765267 z m 24.39799,0.519348 h 7.49567 v 35.929069 h -7.49567 z m -136.94461,5.849773 c -2.84153,0 -5.04632,0.876572 -6.61407,2.63033 -1.41276,1.605482 -2.17705,3.822286 -2.2965,6.646106 h 16.88373 c -0.22047,-2.930623 -1.02891,-5.203401 -2.42518,-6.818705 -1.37177,-1.63838 -3.22086,-2.457731 -5.54798,-2.457731 z M 72.730961,108.13138 c -1.959678,0 -3.429711,0.4152 -4.40955,1.24592 -0.955343,0.80765 -1.432987,2.05375 -1.432987,3.73828 0,1.82298 0.637203,3.173 1.910994,4.04988 1.298287,0.87688 3.257641,1.31568 5.878711,1.31568 2.86603,0 4.997654,-0.28869 6.393925,-0.86558 1.420767,-0.57689 2.131136,-1.47656 2.131136,-2.69958 v -6.7846 z m -58.117899,23.9634 h 24.22126 v 42.05893 h -24.22126 z m 72.911828,0 h 27.65929 l 25.28322,42.05893 h -28.73262 z m 79.48094,0 h 24.7158 c 1.51603,5.45485 4.17455,10.00864 7.99228,13.64775 6.33228,6.03603 15.27656,9.05422 26.83299,9.05422 11.63556,0 20.61955,-3.01819 26.95184,-9.05422 3.86542,-3.63909 6.55702,-8.19294 8.09201,-13.64775 h 24.73544 c -1.11505,6.59708 -3.15243,12.53412 -6.1128,17.81028 -4.74921,8.39492 -11.6749,14.8128 -20.77755,19.25309 -9.10265,4.37091 -20.06607,6.55619 -32.88894,6.55619 -12.74373,0 -23.66692,-2.18528 -32.76958,-6.55619 -9.02351,-4.44029 -15.90948,-10.85817 -20.65869,-19.25309 -2.96039,-5.27616 -4.99776,-11.2132 -6.1128,-17.81028 z" />
  </g>
</svg>
